<svg width="914" height="653" viewBox="0 0 914 653" fill="none" xmlns="http://www.w3.org/2000/svg">
<g clip-path="url(#clip0_309_185)">
<path d="M-1.00098 0C-1.13358 0 -1.26077 0.0526733 -1.35453 0.146423C-1.4483 0.240173 -1.50098 0.3674 -1.50098 0.5L-1.49998 653.501C-1.49998 653.777 -1.27612 654.001 -0.999977 654.001L913.001 654.002C913.134 654.002 913.261 653.949 913.355 653.855C913.448 653.762 913.501 653.634 913.501 653.502L913.5 0.500977C913.5 0.224877 913.276 0.000976562 913 0.000976562L-1.00098 0Z" fill="#06899C"/>
<path d="M0 352.862L341.045 252.66L93.3224 388.337L0 352.862Z" fill="white"/>
<path d="M341.046 252.66L93.3232 388.337L133.105 473.105L341.046 252.66Z" fill="#DCE5EB"/>
<path d="M341.046 252.66L143.573 406.104L222.957 515.1L341.046 252.66Z" fill="white"/>
<path d="M133.104 473.105L143.573 406.104L166.545 437.63L133.104 473.105Z" fill="#3C464F"/>
<path d="M106.842 487.402C106.842 487.402 105.347 488.898 102.535 491.53Z" fill="black"/>
<path d="M136.703 330.313C122.674 332.54 116.45 338.644 118.031 348.625C118.752 352.038 120.355 354.339 122.84 355.528C123.298 355.752 123.93 355.908 124.736 355.997C128.024 355.894 132.128 356.134 137.049 356.716C137.638 361.143 138.394 364.892 139.319 367.964C144.572 382.585 147.137 390.251 147.012 390.962C147.958 394.632 148.605 399.755 148.952 406.331L152.472 410.674L167.719 406.45C167.821 404.339 167.443 401.326 166.586 397.41C161.222 379.669 157.52 365.559 155.48 355.078C178.539 349.84 191.127 346.845 193.246 346.096C193.958 353.134 194.651 357.927 195.324 360.473C195.54 361.895 197.185 367.083 200.259 376.039L203.781 390.658L207.917 393.172L220.723 387.499C220.655 385.251 220.038 381.15 218.873 375.195C217.836 369.424 216.253 363.279 214.123 356.76L212.115 341.349C211.723 338.81 211.232 336.515 210.643 334.466C209.194 329.344 206.994 326.012 204.043 324.472C201.514 323.128 198.125 322.658 193.876 323.062C192.633 323.169 191.154 323.369 189.438 323.663C181.293 325.361 176.207 326.297 174.182 326.469C170.371 326.969 165.735 327.248 160.273 327.308L155.259 327.809C147.295 328.604 141.135 329.434 136.779 330.298" fill="#37597A"/>
<path d="M194.676 385.985C194.306 388.514 194.343 390.968 194.787 393.345C195.23 395.564 195.91 396.789 196.826 397.021C197.214 397.145 197.703 397.164 198.294 397.079C202.456 396.148 205.687 395.626 207.987 395.513C208.794 395.472 209.45 395.486 209.955 395.554C210.183 395.562 210.893 395.72 212.084 396.029L212.865 396.142C213.374 396.189 213.984 396.18 214.696 396.113C216.79 395.884 218.947 395.408 221.166 394.682C225.355 393.356 226.322 391.627 224.066 389.495C223.449 388.944 222.812 388.623 222.154 388.53C221.896 388.487 221.582 388.475 221.211 388.494C219.425 388.731 218.298 388.816 217.83 388.747C216.921 388.688 216.038 388.471 215.18 388.096C213.566 387.469 210.735 385.419 206.686 381.949L194.731 385.967" fill="black"/>
<path d="M159.825 396.303L148.69 400.991C149.082 404.709 149.596 407.458 150.232 409.24C151.51 412.956 153.412 414.917 155.937 415.123C157.39 415.363 159.934 415.043 163.571 414.164C166.344 413.357 168.058 412.507 168.713 411.615C169.166 411.041 169.16 410.371 168.695 409.605C168.461 409.203 168.103 408.741 167.619 408.219C165.481 406.111 164.343 404.952 164.204 404.743C163.672 404.141 163.196 403.526 162.777 402.898C161.825 401.528 160.841 399.331 159.827 396.308" fill="black"/>
<path d="M204.882 311.555L188.604 312.078L183.654 303.145L170.515 308.431C171.548 310.889 173.232 313.956 175.566 317.631C178.163 321.677 180.142 324.364 181.504 325.694C183.031 327.328 185.173 328.021 187.929 327.773C191.111 327.581 193.668 326.454 195.6 324.391C196.153 325.02 196.993 325.304 198.12 325.241C200.182 325.1 201.794 324.745 202.954 324.178C203.181 324.043 203.367 323.886 203.509 323.705L204.187 322.677C205.056 321.648 205.565 320.998 205.715 320.728C206.122 320.124 206.381 319.433 206.493 318.656C206.546 318.321 206.578 317.919 206.591 317.45L206.626 313.772C206.563 313.33 205.989 312.598 204.904 311.577" fill="#FFB792"/>
<path d="M146.934 270.73C144.62 271.065 142.668 273.28 141.078 277.377C136.69 278.28 132.262 280.546 127.793 284.172C124.994 286.62 123.003 289.465 121.82 292.707C121.137 294.586 120.633 296.887 120.311 299.61C120.148 300.979 120.021 302.438 119.93 303.988C119.591 312.925 119.32 317.963 119.117 319.101C118.989 321.033 118.181 326.211 116.694 334.636C116.486 336.038 116.352 337.252 116.29 338.276C116.001 341.988 116.695 345.793 118.374 349.691L118.41 344.278C118.878 342.982 119.308 341.977 119.698 341.262C120.149 340.415 120.711 339.64 121.385 338.937C122.041 338.223 123.218 337.211 124.916 335.902C126.029 334.483 126.779 333.67 127.166 333.462C127.315 333.299 127.863 333.136 128.811 332.971C133.114 332.331 144.289 330.449 162.335 327.327L169.26 306.527L170.518 308.823C171.146 309.131 171.797 309.231 172.473 309.122C173.971 309.031 178.175 307.588 185.087 304.794C183.49 301.544 182.446 299.167 181.953 297.663C181.707 297.234 181.237 295.14 180.542 291.382L179.656 288.871C178.419 286.204 176.93 284.076 175.19 282.485C174.5 281.856 173.662 281.295 172.677 280.802C171.773 280.342 170.359 279.851 168.435 279.331C162.091 275.775 157.59 273.462 154.933 272.394C151.482 270.926 148.85 270.365 147.036 270.71L146.934 270.73ZM118.386 349.732C118.381 349.907 118.385 349.921 118.397 349.774Z" fill="black"/>
<path d="M155.477 247.337C152.265 247.941 149.948 249.494 148.527 251.996C147.042 254.723 146.24 258.651 146.122 263.779C146.094 266.962 146.451 269.656 147.192 271.86L155.212 271.803C164.747 266.9 170.633 263.894 172.87 262.787C175.49 261.481 176.792 260.907 176.776 261.067C175.65 260.09 174.807 259.211 174.248 258.432L171.43 253.854C170.953 253.119 170.476 252.462 169.997 251.883C169.031 250.709 167.981 249.756 166.847 249.024C163.832 247.133 160.061 246.567 155.533 247.326" fill="black"/>
<path d="M126.33 313.604L125.436 313.892C125.87 316.726 126.526 319.136 127.404 321.121C127.779 321.973 128.273 322.884 128.887 323.853C131.66 327.682 133.673 330.738 134.924 333.023C135.939 334.811 138.565 335.407 142.804 334.809C147.282 334.174 149.837 333.741 150.468 333.509C151.968 333.105 153.361 332.492 154.648 331.671C157.091 330.284 161.778 325.945 168.711 318.654L173.229 318.619C174.244 318.577 175.2 318.489 176.097 318.356C179.489 317.844 181.722 317.276 182.797 316.652C183.59 316.244 184.337 315.545 185.037 314.556C185.758 314.938 186.315 314.721 186.706 313.904C186.27 312.937 185.244 311.588 183.63 309.857C184.388 309.829 185.496 309.699 186.955 309.467C187.024 309.586 187.243 309.699 187.611 309.804L190.275 310.469L192.139 308.184C189.108 306.76 187.027 305.938 185.894 305.719C185.492 305.626 185.035 305.554 184.524 305.505C182.797 305.471 181.582 305.388 180.88 305.256C180.463 305.24 180.099 305.272 179.788 305.352C179.43 305.432 178.98 305.598 178.438 305.851L174.392 307.95L169.275 310.251L159.585 315.347C157.824 316.242 156.319 316.946 155.07 317.462C152.093 318.737 148.787 319.493 145.153 319.728C145.126 317.509 144.946 316.01 144.612 315.232L143.802 313.178C143.515 312.977 143.204 312.821 142.869 312.712C142.328 312.426 140.116 312.332 136.234 312.43L126.451 313.59" fill="#FFB792"/>
<path d="M159.901 261.686L158.709 266.445L155.781 267.264L154.359 270.191L152.949 269.453C152.455 267.141 151.852 265.741 151.14 265.251C150.073 264.52 149.127 264.518 148.302 265.245C147.67 265.832 147.601 267.575 148.094 270.473L147.069 270.786C147.006 273.171 146.521 275.276 145.611 277.099C147.4 279.794 148.779 281.63 149.747 282.606C150.641 283.583 152.07 284.686 154.036 285.915L156.143 296.912L159.501 285.858C161.474 286.359 163.072 286.65 164.295 286.728C165.224 286.748 165.826 286.488 166.101 285.948C166.43 285.444 166.585 284.314 166.567 282.559C166.973 282.229 167.181 281.939 167.193 281.688C167.236 281.598 167.23 281.165 167.174 280.389C168.207 280.012 168.671 279.363 168.568 278.442C169.655 278.323 170.265 278.149 170.396 277.922C170.521 277.862 170.61 277.467 170.665 276.737C171.097 276.332 171.323 276.05 171.345 275.891C171.587 275.516 171.48 273.902 171.026 271.049C172.254 270.319 172.873 269.562 172.882 268.776C172.778 266.616 172.85 264.222 173.1 261.594C171.849 262.014 170.443 262.222 168.884 262.218C167.48 262.248 164.498 262.072 159.937 261.689" fill="#FFB792"/>
<path d="M154.723 284.377L156.054 297.051L159.468 285.845L154.727 284.378" fill="#FF4700" fill-opacity="0.113725"/>
<path d="M151.42 285.244C150.771 285.371 149.762 287.249 148.393 290.877L153.178 290.122C152.873 288.373 152.611 287.169 152.391 286.509C152.148 285.754 151.886 285.337 151.607 285.258L151.604 285.258C151.546 285.235 151.485 285.231 151.42 285.244V285.245V285.244ZM161.562 287.561C161.373 287.598 161.153 287.822 160.904 288.233C160.61 288.702 160.18 289.628 159.615 291.013L162.909 290.558C162.647 289.499 162.435 288.771 162.271 288.373C162.087 287.91 161.904 287.645 161.722 287.577L161.718 287.575C161.668 287.555 161.616 287.551 161.562 287.561L161.562 287.561L161.562 287.561ZM172.333 296.624L171.092 301.844L169.243 306.458C170.189 304.829 170.872 303.349 171.29 302.018C171.677 300.843 172.024 299.05 172.331 296.639L172.333 296.624L172.333 296.624L172.333 296.624ZM133.815 290.03L133.815 290.03C135.087 291.482 136.053 292.725 136.712 293.76C137.45 294.893 138.159 296.234 138.838 297.782C139.505 299.294 140.196 301.134 140.913 303.3C141.569 305.26 142.549 308.457 143.852 312.892C143.032 309.083 142.295 306.126 141.641 304.021C141.019 301.942 139.922 298.884 138.35 294.849L133.821 290.035L133.816 290.03L133.816 290.031L133.815 290.03ZM155.354 345.924C155.815 347.541 155.887 350.581 155.567 355.044L167.918 352.027L194.024 345.931L155.402 345.924L155.354 345.924L155.354 345.925L155.354 345.924Z" fill="black" fill-opacity="0.160784"/>
<path d="M213.415 277.781L217.285 294.898L198.322 319.363C198.228 319.506 198.191 319.532 198.212 319.44L196.839 301.252L213.398 277.804" fill="black"/>
<path d="M212.865 279.405L216.438 295.211L198.928 317.802C198.841 317.934 198.807 317.958 198.827 317.873L197.559 301.078L212.849 279.427" fill="white"/>
<path d="M213.314 299.495L195.894 301.629L179.263 327.735C179.16 327.872 179.148 327.915 179.228 327.864L196.813 323.02L213.297 299.519" fill="black"/>
<path d="M205.671 310.101L203.992 312.464C204.577 312.22 204.989 312.026 205.23 311.882C205.511 311.718 205.707 311.558 205.818 311.401C206.046 311.084 205.998 310.652 205.672 310.104" fill="#FFB792"/>
<path d="M202.8 315.522C198.892 315.528 196.845 315.57 196.66 315.65C195.763 315.8 195.187 316.115 194.931 316.594C194.78 316.913 194.763 317.257 194.881 317.627C195.004 317.964 195.217 318.189 195.521 318.302C195.683 318.364 195.903 318.399 196.182 318.407C196.291 318.41 196.424 318.409 196.581 318.404C197.321 318.364 197.746 318.345 197.857 318.349C198.129 318.347 198.4 318.36 198.672 318.389C199.228 318.441 200.034 318.605 201.089 318.881L202.798 315.526" fill="#FFB792"/>
<path d="M200.86 318.927C197.547 318.329 195.555 318.033 194.882 318.039C194.1 317.98 193.501 318.202 193.085 318.708C192.56 319.283 192.659 319.961 193.382 320.743C193.7 321.106 194.078 321.432 194.516 321.721C194.963 322.025 195.853 322.556 197.187 323.314L200.852 318.937" fill="#FFB792"/>
<path d="M204.902 311.844C203.397 311.8 202.256 311.876 201.478 312.072C200.602 312.297 199.99 312.657 199.641 313.152C199.45 313.439 199.377 313.727 199.424 314.016C199.474 314.299 199.635 314.524 199.906 314.688C200.125 314.821 200.457 314.91 200.901 314.957C201.27 315 201.888 315.009 202.755 314.984L204.898 311.85" fill="#FFB792"/>
<path d="M262.285 334.278L256.543 328.543L250.8 322.809C215.631 350.155 180.463 377.5 145.294 404.846C154.109 417.013 162.924 429.18 171.74 441.346C200.825 423.466 229.911 405.586 258.997 387.707L262.285 334.278Z" fill="white"/>
<path d="M816.104 195.727L811.111 195.003L806.118 194.279C807.157 195.175 808.195 196.07 809.233 196.966C808.749 198.238 808.264 199.51 807.78 200.782L816.104 195.727Z" fill="white"/>
<path d="M811.956 192.872L811.841 192.284L811.725 191.696C810.909 193.51 810.093 195.324 809.276 197.138C810.708 198.428 812.14 199.718 813.572 201.008L811.956 192.872Z" fill="white"/>
<path d="M437.819 231.834L437.703 231.246L437.588 230.658C436.771 232.472 435.955 234.286 435.139 236.1C436.571 237.39 438.003 238.68 439.435 239.97L437.819 231.834Z" fill="white"/>
<path d="M624.695 508.902L619.701 508.179L614.709 507.454C615.747 508.35 616.786 509.245 617.824 510.141C617.34 511.413 616.855 512.685 616.371 513.957L624.695 508.902Z" fill="white"/>
<path d="M552.986 648.031L547.992 647.308L543 646.583C544.038 647.479 545.077 648.374 546.115 649.27C545.631 650.542 545.146 651.814 544.662 653.086L552.986 648.031Z" fill="white"/>
<path d="M620.546 506.047L620.431 505.459L620.315 504.871C619.499 506.685 618.683 508.499 617.866 510.313C619.298 511.603 620.73 512.893 622.163 514.183L620.546 506.047Z" fill="white"/>
<path d="M548.837 645.177L548.722 644.588L548.606 644C547.79 645.814 546.974 647.628 546.157 649.442C547.589 650.732 549.021 652.022 550.454 653.312L548.837 645.177Z" fill="white"/>
<path d="M216.742 149.81L211.749 149.086L206.756 148.363C207.794 149.258 208.833 150.153 209.871 151.049C209.387 152.321 208.902 153.593 208.418 154.865L216.742 149.81Z" fill="white"/>
<path d="M212.593 146.955L212.478 146.367L212.362 145.779C211.546 147.593 210.729 149.407 209.913 151.221C211.345 152.511 212.777 153.801 214.209 155.091L212.593 146.955Z" fill="white"/>
<path d="M193.858 184.568L201.214 185.634L208.57 186.701C207.04 185.381 205.51 184.062 203.98 182.743C204.694 180.869 205.408 178.995 206.122 177.121L193.858 184.568Z" fill="white"/>
<path d="M199.97 188.774L200.141 189.641L200.311 190.507C201.514 187.834 202.716 185.162 203.919 182.489C201.809 180.589 199.699 178.688 197.589 176.788L199.97 188.774Z" fill="white"/>
<path d="M584.149 230.944L591.505 232.01L598.861 233.077C597.331 231.758 595.801 230.438 594.271 229.119C594.985 227.245 595.699 225.371 596.413 223.497L584.149 230.944Z" fill="white"/>
<path d="M590.261 235.15L590.431 236.017L590.601 236.883C591.804 234.211 593.006 231.538 594.209 228.865C592.099 226.965 589.989 225.064 587.879 223.164L590.261 235.15Z" fill="white"/>
<path d="M610.517 527.225L615.152 529.217L619.787 531.209C619.016 530.075 618.245 528.941 617.474 527.807C618.271 526.704 619.068 525.601 619.865 524.498L610.517 527.225Z" fill="white"/>
<path d="M613.784 531.057L613.744 531.656L613.703 532.253C614.961 530.712 616.219 529.171 617.477 527.631C616.428 526.014 615.378 524.397 614.329 522.78L613.784 531.057Z" fill="white"/>
<path d="M760.161 312.624L764.797 314.615L769.432 316.607C768.661 315.473 767.89 314.339 767.118 313.206C767.915 312.102 768.713 310.999 769.51 309.896L760.161 312.624Z" fill="white"/>
<path d="M763.429 316.455L763.388 317.054L763.348 317.652C764.606 316.111 765.864 314.57 767.122 313.028C766.072 311.412 765.023 309.795 763.973 308.179L763.429 316.455Z" fill="white"/>
<path d="M348.689 176.278C349.164 174.507 349.39 172.681 349.362 170.83C349.196 159.89 340.162 151.125 329.222 151.29C324.671 151.358 320.249 153.006 316.771 155.929C313.678 158.528 311.441 162.032 310.382 165.899C303.052 165.325 296.503 170.071 294.538 176.882C293.425 176.646 292.291 176.536 291.149 176.554C282.73 176.681 275.983 183.585 276.11 192.004C276.238 200.425 283.19 207.121 291.609 206.994L344.917 206.189C353.337 206.061 360.083 199.157 359.956 190.738C359.852 183.848 355.204 178.03 348.689 176.278Z" fill="#69E8FB"/>
<path d="M508.932 117.944C508.711 117.12 508.606 116.271 508.619 115.411C508.696 110.323 512.897 106.247 517.984 106.324C520.101 106.356 522.157 107.123 523.774 108.481C525.213 109.69 526.253 111.319 526.745 113.118C530.154 112.851 533.199 115.057 534.113 118.225C534.63 118.115 535.158 118.064 535.689 118.072C539.604 118.131 542.741 121.342 542.682 125.257C542.623 129.173 539.39 132.286 535.475 132.228L510.686 131.853C506.77 131.794 503.633 128.583 503.692 124.668C503.741 121.464 505.902 118.759 508.932 117.944Z" fill="#69E8FB"/>
<path d="M803.57 494.389C803.883 493.22 804.033 492.015 804.015 490.794C803.905 483.576 797.944 477.792 790.725 477.903C787.722 477.947 784.804 479.034 782.51 480.962C780.469 482.678 778.993 484.989 778.294 487.541C773.457 487.163 769.137 490.294 767.84 494.788C767.106 494.633 766.357 494.56 765.604 494.572C760.049 494.655 755.597 499.211 755.681 504.766C755.765 510.322 760.353 514.74 765.908 514.657L801.082 514.124C806.638 514.04 811.089 509.485 811.005 503.929C810.936 499.384 807.869 495.545 803.57 494.389Z" fill="#69E8FB"/>
<path d="M131.248 81.6558C131.026 80.8325 130.921 79.9831 130.934 79.1225C131.011 74.0355 135.212 69.9593 140.3 70.0363C142.416 70.0682 144.472 70.8344 146.09 72.1934C147.528 73.4024 148.568 75.0315 149.061 76.8297C152.47 76.5626 155.515 78.7695 156.429 81.9368C156.946 81.8272 157.473 81.7763 158.005 81.7841C161.92 81.8433 165.057 85.0538 164.998 88.969C164.938 92.8846 161.705 95.9985 157.79 95.9394L133.001 95.5649C129.085 95.5054 125.948 92.2947 126.008 88.3794C126.056 85.1762 128.218 82.4706 131.248 81.6558Z" fill="#69E8FB"/>
<path d="M24.9857 568.031L19.9925 567.308L15 566.583C16.0383 567.479 17.0767 568.374 18.1152 569.27C17.6308 570.542 17.1462 571.814 16.6616 573.086L24.9857 568.031Z" fill="white"/>
<path d="M20.8373 565.177L20.7217 564.588L20.6061 564C19.7899 565.814 18.9736 567.628 18.1572 569.442C19.5894 570.732 21.0215 572.022 22.4536 573.312L20.8373 565.177Z" fill="white"/>
</g>
<defs>
<clipPath id="clip0_309_185">
<rect width="914" height="653" fill="white"/>
</clipPath>
</defs>
</svg>
