<svg width="1440" height="1024" viewBox="0 0 1440 1024" fill="none" xmlns="http://www.w3.org/2000/svg">
<rect width="1440" height="1024" fill="#292929"/>
<path fill-rule="evenodd" clip-rule="evenodd" d="M1440.36 0.000132301V1029.4H510.664C387.175 747.92 348.413 404.433 412.571 38.8762C414.889 25.6655 417.014 12.7551 419.036 0.000132301H1440.36Z" fill="#440006"/>
<path fill-rule="evenodd" clip-rule="evenodd" d="M1440.36 0.000132301V1029.4H542.666C397.84 743.32 345.738 384.541 407.726 0.000132301H1440.36Z" fill="#F82015"/>
<path fill-rule="evenodd" clip-rule="evenodd" d="M1440.36 0.000132301V1029.4H792.368C628.433 764.558 548.766 431.078 686.861 0.000132301H1440.36Z" fill="#770F06"/>
<path fill-rule="evenodd" clip-rule="evenodd" d="M1440.36 0.000132301V1029.4H853.426C664.805 768.453 551.892 436.298 666.355 0.000132301H1440.36Z" fill="#FA9800"/>
<path fill-rule="evenodd" clip-rule="evenodd" d="M1440.36 4.27473e-05V908.218C1297.59 876.914 1141 792.491 1001.13 604.406C870.418 428.638 866.454 217.353 919.104 4.27473e-05H1440.36Z" fill="#AA6700"/>
<path fill-rule="evenodd" clip-rule="evenodd" d="M1440.36 6.7213e-05V815.021C1297.59 783.719 1141 699.295 1001.13 511.211C889.196 360.691 870.258 184.116 900.161 6.7213e-05H1440.36Z" fill="#00BFBA"/>
</svg>
